<svg xmlns="http://www.w3.org/2000/svg" width="1240" height="1240"><path d="M965.5 213.631c-50.679 5.366-79.629 16.928-102.399 40.9-21.521 22.655-34.311 54.882-39.675 99.969-1.138 9.564-1.866 26.631-2.296 53.864l-.63 39.864-48.75 17.064L723 482.356V520h98v488h93V520h124v-69H913.811l.496-44.75c.61-54.948 1.723-62.888 11.765-83.878 7.976-16.674 17.409-24.622 35.413-29.84 22.534-6.53 55.085-4.513 89.151 5.523 5.975 1.76 11.825 3.41 12.999 3.667 1.989.435 2.938-1.941 13.854-34.69 6.446-19.336 11.56-35.304 11.365-35.483-2.388-2.199-46.445-13.575-62.527-16.146-9.502-1.519-51.624-2.746-60.827-1.772m-585 228.408c-36.499 3.62-69.648 13.642-97.751 29.554-27.963 15.833-55.389 42.639-73.416 71.756-32.074 51.807-47.021 117.291-45.001 197.151 1.543 61.011 11.467 105.829 33.219 150.033 19.045 38.701 44.475 68.268 77.949 90.626 10.906 7.284 35.686 19.599 48 23.853 11.78 4.071 29.291 8.418 43 10.676 15.651 2.578 62.87 2.584 79.5.009 104.173-16.125 170.757-83.691 194.406-197.273 9.539-45.819 11.081-105.4 3.994-154.424-3.616-25.015-12.073-55.94-21.512-78.668-33.115-79.729-96.013-129.867-177.995-141.884-13.271-1.945-50.724-2.765-64.393-1.409m5 75.995C309.549 526.687 272.653 573.321 261.308 675c-2.195 19.676-2.507 82.806-.503 102 2.222 21.293 5.191 38.867 9.275 54.907 16.108 63.259 47.5 96.235 102.157 107.31 9.864 1.999 14.182 2.279 34.763 2.255 18.343-.021 25.475-.416 32.5-1.798 26.941-5.3 45.62-14.282 62.088-29.855 10.676-10.095 18.426-20.894 26.025-36.261 18.827-38.072 27.569-90.79 26.045-157.058-.869-37.823-4.107-64.338-11.113-91-16.409-62.456-49.467-96.174-103.545-105.613-13.238-2.311-41.033-3.274-53.5-1.853" fill="undefined" fill-rule="evenodd"/></svg>